<svg width="80" height="42" viewBox="0 0 80 42" fill="none" xmlns="http://www.w3.org/2000/svg">
<path d="M42.6937 10.3869C42.7756 10.4692 42.8405 10.5668 42.8847 10.6743C42.9288 10.7817 42.9513 10.8967 42.951 11.0129V14.4429C42.9381 14.6688 42.8393 14.8813 42.6748 15.0367C42.5103 15.1921 42.2926 15.2787 42.0663 15.2787C41.84 15.2787 41.6223 15.1921 41.4578 15.0367C41.2933 14.8813 41.1945 14.6688 41.1816 14.4429V11.0129C41.1819 10.8378 41.234 10.6667 41.3313 10.5212C41.4287 10.3757 41.567 10.2623 41.7288 10.1953C41.8906 10.1283 42.0685 10.1108 42.2403 10.1449C42.412 10.179 42.5698 10.2632 42.6937 10.3869Z" fill="#7600FF"/>
<path d="M34.0986 26.0278C34.0356 26.1524 33.9486 26.2634 33.8427 26.3545C33.7367 26.4455 33.6139 26.5147 33.4812 26.5583C33.3484 26.6018 33.2084 26.6187 33.0692 26.6082C32.9299 26.5976 32.7941 26.5596 32.6695 26.4966C30.9154 25.6067 29.3684 24.3574 28.1293 22.83C26.8901 21.3026 25.9865 19.5313 25.4774 17.6315C24.9683 15.7317 24.865 13.746 25.1742 11.8036C25.4835 9.86122 26.1984 8.00575 27.2724 6.35802C28.3464 4.71028 29.7554 3.30723 31.4077 2.2402C33.0599 1.17318 34.9184 0.466117 36.8621 0.165053C38.8057 -0.13601 40.791 -0.0243238 42.6887 0.49284C44.5863 1.01 46.3537 1.92105 47.8759 3.16666C47.9842 3.25543 48.0739 3.36466 48.14 3.48812C48.2061 3.61158 48.2472 3.74684 48.261 3.88619C48.2748 4.02554 48.261 4.16624 48.2205 4.30026C48.1799 4.43428 48.1133 4.559 48.0245 4.66729C47.9358 4.77558 47.8265 4.86533 47.7031 4.93141C47.5796 4.99749 47.4443 5.0386 47.305 5.0524C47.1657 5.0662 47.025 5.05242 46.8909 5.01185C46.7569 4.97127 46.6322 4.9047 46.5239 4.81593C45.2339 3.75574 43.7348 2.9795 42.1244 2.53787C40.5141 2.09623 38.8288 1.99913 37.1784 2.25289C35.528 2.50665 33.9497 3.10558 32.5464 4.01058C31.1431 4.91558 29.9465 6.10632 29.0345 7.50508C28.1226 8.90384 27.5158 10.4792 27.2539 12.1283C26.9919 13.7774 27.0807 15.4632 27.5143 17.0757C27.9479 18.6882 28.7167 20.1911 29.7705 21.4864C30.8243 22.7817 32.1393 23.8402 33.6299 24.5929C33.882 24.7213 34.0729 24.9445 34.1608 25.2135C34.2487 25.4824 34.2263 25.7753 34.0986 26.0278Z" fill="#7600FF"/>
<path d="M48.6621 11.9019H43.8486V14.037H48.6621V11.9019Z" fill="#7600FF"/>
<path d="M50.4456 10.1267C50.6774 10.1275 50.8994 10.2199 51.0633 10.3837C51.2271 10.5476 51.3195 10.7696 51.3203 11.0014V14.4886C51.3075 14.7123 51.2096 14.9226 51.0467 15.0764C50.8838 15.2303 50.6683 15.316 50.4442 15.316C50.2201 15.316 50.0046 15.2303 49.8417 15.0764C49.6788 14.9226 49.5809 14.7123 49.5681 14.4886V11.0014C49.5689 10.7691 49.6617 10.5467 49.8261 10.3827C49.9906 10.2188 50.2134 10.1267 50.4456 10.1267Z" fill="#7600FF"/>
<path d="M51.3088 1.24586C51.5811 1.32253 51.8118 1.50394 51.9506 1.75038C52.0893 1.99681 52.1248 2.28819 52.0492 2.56071L50.4828 8.16023C50.4198 8.38471 50.2852 8.58246 50.0994 8.72333C49.9137 8.86421 49.6869 8.94049 49.4538 8.94056C49.3574 8.93945 49.2614 8.92698 49.1679 8.9034L43.5656 7.33702C43.3038 7.25163 43.0851 7.06856 42.955 6.82594C42.8249 6.58332 42.7934 6.29986 42.8671 6.0346C42.9408 5.76934 43.114 5.54274 43.3506 5.40198C43.5872 5.26123 43.869 5.21718 44.1372 5.279L48.7106 6.55669L49.9911 1.98332C50.0291 1.84826 50.0933 1.72202 50.18 1.61181C50.2668 1.50161 50.3745 1.40962 50.4969 1.34111C50.6194 1.27261 50.7541 1.22893 50.8934 1.21258C51.0327 1.19624 51.1739 1.20755 51.3088 1.24586Z" fill="#7600FF"/>
<path d="M52.575 11.9019H52.1205V14.037H52.575C52.8376 14.0378 53.0891 14.1426 53.2745 14.3286C53.4599 14.5145 53.564 14.7663 53.564 15.0289V16.6725H38.9435V15.0289C38.9443 14.7656 39.0494 14.5133 39.2359 14.3274C39.4223 14.1415 39.6749 14.037 39.9382 14.037H40.3813V11.9019H39.9382C39.1103 11.9064 38.3175 12.2373 37.7321 12.8227C37.1466 13.4082 36.8157 14.2009 36.8112 15.0289V24.7759C36.7655 25.8049 37.017 26.6138 37.5658 27.1798C38.1146 27.7457 38.8263 28.0001 39.7667 28.0001H52.575C53.4025 27.9949 54.1945 27.6636 54.7793 27.0782C55.3642 26.4929 55.6947 25.7005 55.6992 24.8731V15.0289C55.6947 14.2014 55.3642 13.4091 54.7793 12.8237C54.1945 12.2383 53.4025 11.9071 52.575 11.9019ZM53.564 24.8731C53.564 25.1356 53.4599 25.3875 53.2745 25.5734C53.0891 25.7593 52.8376 25.8642 52.575 25.8649H39.7867C39.5418 25.8961 39.294 25.8372 39.0893 25.6991C38.937 25.4409 38.8813 25.1371 38.9321 24.8416V18.8076H53.564V24.8731Z" fill="#7600FF"/>
<path d="M1.872 40H0.972V32.056H4.548C5.388 32.056 6.056 32.288 6.552 32.752C7.04 33.216 7.284 33.836 7.284 34.612C7.284 35.396 7.036 36.02 6.54 36.484C6.052 36.94 5.388 37.168 4.548 37.168H1.872V40ZM1.872 32.908V36.328H4.488C5.112 36.328 5.584 36.176 5.904 35.872C6.224 35.568 6.384 35.152 6.384 34.624C6.384 34.088 6.224 33.668 5.904 33.364C5.584 33.06 5.112 32.908 4.488 32.908H1.872ZM11.4832 33.904V34.804H11.3752C10.7272 34.804 10.1992 35.064 9.79116 35.584C9.40716 36.08 9.21516 36.672 9.21516 37.36V40H8.31516V34H9.21516V35.476C9.40716 34.852 9.82316 34.392 10.4632 34.096C10.7272 33.968 11.0472 33.904 11.4232 33.904H11.4832ZM14.9755 39.28C15.7835 39.28 16.3635 38.944 16.7155 38.272H17.6995C17.4915 38.816 17.1595 39.256 16.7035 39.592C16.2555 39.928 15.6755 40.096 14.9635 40.096C14.0595 40.096 13.3235 39.796 12.7555 39.196C12.2035 38.612 11.9275 37.88 11.9275 37C11.9275 36.112 12.1915 35.38 12.7195 34.804C13.2795 34.204 14.0075 33.904 14.9035 33.904C15.7995 33.904 16.5275 34.204 17.0875 34.804C17.6155 35.38 17.8795 36.112 17.8795 37V37.36H12.8515C12.9155 37.912 13.1355 38.368 13.5115 38.728C13.8955 39.096 14.3835 39.28 14.9755 39.28ZM14.9035 34.72C14.3515 34.72 13.8875 34.892 13.5115 35.236C13.1595 35.564 12.9435 35.992 12.8635 36.52H16.9435C16.8635 35.992 16.6475 35.564 16.2955 35.236C15.9195 34.892 15.4555 34.72 14.9035 34.72ZM14.7835 31.9H16.0675L14.7835 33.16H14.0515L14.7835 31.9ZM23.9603 34L21.6203 40H20.5643L18.2123 34H19.1963L21.0923 39.04L22.9763 34H23.9603ZM24.8034 34H25.7034V40H24.8034V34ZM25.7394 31.816V32.992H24.7674V31.816H25.7394ZM30.7924 35.608C30.7124 34.984 30.2084 34.672 29.2804 34.672C28.3604 34.672 27.9004 34.96 27.9004 35.536C27.9004 35.776 27.9964 35.96 28.1884 36.088C28.3884 36.208 28.6364 36.308 28.9324 36.388C29.2284 36.468 29.5484 36.544 29.8924 36.616C30.2444 36.68 30.5684 36.776 30.8644 36.904C31.1604 37.024 31.4044 37.192 31.5964 37.408C31.7964 37.624 31.8964 37.92 31.8964 38.296C31.8964 38.88 31.6764 39.328 31.2364 39.64C30.7964 39.944 30.2004 40.096 29.4484 40.096C28.6484 40.096 28.0124 39.896 27.5404 39.496C27.1084 39.144 26.8764 38.684 26.8444 38.116H27.7804C27.8364 38.668 28.1484 39.04 28.7164 39.232C28.9244 39.296 29.1284 39.328 29.3284 39.328C29.5364 39.328 29.7284 39.316 29.9044 39.292C30.0804 39.268 30.2524 39.224 30.4204 39.16C30.8044 39.008 30.9964 38.748 30.9964 38.38C30.9964 38.132 30.8964 37.944 30.6964 37.816C30.5044 37.68 30.2604 37.572 29.9644 37.492C29.6684 37.404 29.3444 37.328 28.9924 37.264C28.6484 37.192 28.3284 37.096 28.0324 36.976C27.7364 36.856 27.4884 36.692 27.2884 36.484C27.0964 36.276 27.0004 35.988 27.0004 35.62C27.0004 35.076 27.1964 34.656 27.5884 34.36C27.9884 34.056 28.5764 33.904 29.3524 33.904C30.0884 33.904 30.6684 34.08 31.0924 34.432C31.4444 34.728 31.6484 35.12 31.7044 35.608H30.7924ZM33.0534 34H33.9534V40H33.0534V34ZM33.9894 31.816V32.992H33.0174V31.816H33.9894ZM38.1184 33.904C39.0144 33.904 39.7424 34.204 40.3024 34.804C40.8304 35.38 41.0944 36.112 41.0944 37C41.0944 37.888 40.8304 38.62 40.3024 39.196C39.7424 39.796 39.0144 40.096 38.1184 40.096C37.2224 40.096 36.4944 39.796 35.9344 39.196C35.4064 38.62 35.1424 37.888 35.1424 37C35.1424 36.112 35.4064 35.38 35.9344 34.804C36.4944 34.204 37.2224 33.904 38.1184 33.904ZM38.1184 39.28C38.7664 39.28 39.2784 39.056 39.6544 38.608C40.0144 38.184 40.1944 37.648 40.1944 37C40.1944 36.352 40.0144 35.816 39.6544 35.392C39.2784 34.944 38.7664 34.72 38.1184 34.72C37.4704 34.72 36.9584 34.944 36.5824 35.392C36.2224 35.816 36.0424 36.352 36.0424 37C36.0424 37.648 36.2224 38.184 36.5824 38.608C36.9584 39.056 37.4704 39.28 38.1184 39.28ZM43.1878 34V34.936C43.4038 34.648 43.6678 34.404 43.9798 34.204C44.2918 34.004 44.6478 33.904 45.0478 33.904C45.4478 33.904 45.7918 33.96 46.0798 34.072C46.3678 34.184 46.6198 34.352 46.8358 34.576C47.3318 35.064 47.5798 35.708 47.5798 36.508V40H46.6798V36.532C46.6798 35.98 46.5238 35.54 46.2118 35.212C45.8998 34.884 45.4958 34.72 44.9998 34.72C44.4958 34.72 44.0678 34.888 43.7158 35.224C43.3638 35.568 43.1878 36.008 43.1878 36.544V40H42.2878V34H43.1878ZM49.9847 34V34.936C50.2007 34.648 50.4647 34.404 50.7767 34.204C51.0887 34.004 51.4447 33.904 51.8447 33.904C52.2447 33.904 52.5887 33.96 52.8767 34.072C53.1647 34.184 53.4167 34.352 53.6327 34.576C54.1287 35.064 54.3767 35.708 54.3767 36.508V40H53.4767V36.532C53.4767 35.98 53.3207 35.54 53.0087 35.212C52.6967 34.884 52.2927 34.72 51.7967 34.72C51.2927 34.72 50.8647 34.888 50.5127 35.224C50.1607 35.568 49.9847 36.008 49.9847 36.544V40H49.0847V34H49.9847ZM58.5576 39.28C59.3656 39.28 59.9456 38.944 60.2976 38.272H61.2816C61.0736 38.816 60.7416 39.256 60.2856 39.592C59.8376 39.928 59.2576 40.096 58.5456 40.096C57.6416 40.096 56.9056 39.796 56.3376 39.196C55.7856 38.612 55.5096 37.88 55.5096 37C55.5096 36.112 55.7736 35.38 56.3016 34.804C56.8616 34.204 57.5896 33.904 58.4856 33.904C59.3816 33.904 60.1096 34.204 60.6696 34.804C61.1976 35.38 61.4616 36.112 61.4616 37V37.36H56.4336C56.4976 37.912 56.7176 38.368 57.0936 38.728C57.4776 39.096 57.9656 39.28 58.5576 39.28ZM58.4856 34.72C57.9336 34.72 57.4696 34.892 57.0936 35.236C56.7416 35.564 56.5256 35.992 56.4456 36.52H60.5256C60.4456 35.992 60.2296 35.564 59.8776 35.236C59.5016 34.892 59.0376 34.72 58.4856 34.72ZM63.4613 40H62.5613V31.6H63.4613V40ZM65.9222 40H65.0222V31.6H65.9222V40ZM70.1591 39.28C70.9671 39.28 71.5471 38.944 71.8991 38.272H72.8831C72.6751 38.816 72.3431 39.256 71.8871 39.592C71.4391 39.928 70.8591 40.096 70.1471 40.096C69.2431 40.096 68.5071 39.796 67.9391 39.196C67.3871 38.612 67.1111 37.88 67.1111 37C67.1111 36.112 67.3751 35.38 67.9031 34.804C68.4631 34.204 69.1911 33.904 70.0871 33.904C70.9831 33.904 71.7111 34.204 72.2711 34.804C72.7991 35.38 73.0631 36.112 73.0631 37V37.36H68.0351C68.0991 37.912 68.3191 38.368 68.6951 38.728C69.0791 39.096 69.5671 39.28 70.1591 39.28ZM70.0871 34.72C69.5351 34.72 69.0711 34.892 68.6951 35.236C68.3431 35.564 68.1271 35.992 68.0471 36.52H72.1271C72.0471 35.992 71.8311 35.564 71.4791 35.236C71.1031 34.892 70.6391 34.72 70.0871 34.72ZM77.6908 35.608C77.6108 34.984 77.1068 34.672 76.1788 34.672C75.2588 34.672 74.7988 34.96 74.7988 35.536C74.7988 35.776 74.8948 35.96 75.0868 36.088C75.2868 36.208 75.5348 36.308 75.8308 36.388C76.1268 36.468 76.4468 36.544 76.7908 36.616C77.1428 36.68 77.4668 36.776 77.7628 36.904C78.0588 37.024 78.3028 37.192 78.4948 37.408C78.6948 37.624 78.7948 37.92 78.7948 38.296C78.7948 38.88 78.5748 39.328 78.1348 39.64C77.6948 39.944 77.0988 40.096 76.3468 40.096C75.5468 40.096 74.9108 39.896 74.4388 39.496C74.0068 39.144 73.7748 38.684 73.7428 38.116H74.6788C74.7348 38.668 75.0468 39.04 75.6148 39.232C75.8228 39.296 76.0268 39.328 76.2268 39.328C76.4348 39.328 76.6268 39.316 76.8028 39.292C76.9788 39.268 77.1508 39.224 77.3188 39.16C77.7028 39.008 77.8948 38.748 77.8948 38.38C77.8948 38.132 77.7948 37.944 77.5948 37.816C77.4028 37.68 77.1588 37.572 76.8628 37.492C76.5668 37.404 76.2428 37.328 75.8908 37.264C75.5468 37.192 75.2268 37.096 74.9308 36.976C74.6348 36.856 74.3868 36.692 74.1868 36.484C73.9948 36.276 73.8988 35.988 73.8988 35.62C73.8988 35.076 74.0948 34.656 74.4868 34.36C74.8868 34.056 75.4748 33.904 76.2508 33.904C76.9868 33.904 77.5668 34.08 77.9908 34.432C78.3428 34.728 78.5468 35.12 78.6028 35.608H77.6908Z" fill="#7600FF"/>
</svg>
