<svg width="32" height="28" viewBox="0 0 32 28" fill="none" xmlns="http://www.w3.org/2000/svg">
<path d="M18.449 10.395C18.5349 10.4769 18.6031 10.5743 18.6496 10.6816C18.6962 10.7888 18.7203 10.9039 18.7205 11.0201V14.4582C18.7205 14.693 18.6232 14.9183 18.4502 15.0843C18.2771 15.2504 18.0424 15.3437 17.7976 15.3437C17.5529 15.3437 17.3181 15.2504 17.1451 15.0843C16.972 14.9183 16.8748 14.693 16.8748 14.4582V11.0179C16.8748 10.783 16.972 10.5578 17.1451 10.3917C17.3181 10.2256 17.5529 10.1323 17.7976 10.1323C17.919 10.1319 18.0392 10.155 18.1511 10.2001C18.2631 10.2452 18.3644 10.3115 18.449 10.395Z" fill="#292D50"/>
<path d="M9.49649 26.0292C9.36289 26.2815 9.13038 26.4726 8.85004 26.5605C8.56971 26.6484 8.26447 26.6259 8.00139 26.498C6.17199 25.6092 4.55832 24.3603 3.26557 22.8329C1.97282 21.3055 1.03002 19.5339 0.4986 17.6334C-0.0328143 15.7329 -0.140905 13.7464 0.181373 11.8031C0.503652 9.85988 1.24907 8.00362 2.36903 6.35535C3.48898 4.70708 4.95835 3.30379 6.68134 2.23695C8.40433 1.17012 10.3423 0.463683 12.3688 0.163701C14.3954 -0.136282 16.4651 -0.0230795 18.443 0.495929C20.4209 1.01494 22.2627 1.9281 23.8482 3.1759C24.0761 3.35521 24.2205 3.61408 24.2496 3.89556C24.2786 4.17703 24.19 4.45805 24.0031 4.6768C23.8162 4.89555 23.5465 5.03411 23.2531 5.06199C22.9598 5.08987 22.667 5.0048 22.439 4.82548C21.0951 3.76742 19.5338 2.99305 17.8571 2.55286C16.1804 2.11267 14.4258 2.01654 12.7077 2.27075C10.9896 2.52496 9.34671 3.12379 7.88602 4.0282C6.42533 4.93261 5.17969 6.12229 4.2303 7.51967C3.28092 8.91706 2.64911 10.4908 2.37608 12.1382C2.10304 13.7856 2.19491 15.4698 2.6457 17.0808C3.09649 18.6919 3.89606 20.1937 4.9923 21.4883C6.08854 22.783 7.45682 23.8413 9.00793 24.5945C9.27042 24.7231 9.46917 24.9462 9.56072 25.2151C9.65227 25.4839 9.62918 25.7766 9.49649 26.0292Z" fill="#292D50"/>
<path d="M24.6669 11.9099H19.6523V14.0435H24.6669V11.9099Z" fill="#292D50"/>
<path d="M26.524 10.1344C26.764 10.1344 26.9941 10.2259 27.1638 10.3887C27.3334 10.5515 27.4288 10.7724 27.4288 11.0026V14.4906C27.4288 14.7229 27.3326 14.9457 27.1614 15.1099C26.9903 15.2742 26.7581 15.3664 26.5161 15.3664C26.274 15.3664 26.0419 15.2742 25.8707 15.1099C25.6996 14.9457 25.6034 14.7229 25.6034 14.4906V11.0178C25.6013 10.9012 25.6236 10.7854 25.6691 10.6773C25.7146 10.5692 25.7824 10.471 25.8683 10.3886C25.9542 10.3061 26.0565 10.2411 26.1692 10.1975C26.2818 10.1538 26.4025 10.1324 26.524 10.1344Z" fill="#292D50"/>
<path d="M27.4242 1.25075C27.7082 1.32719 27.9489 1.50864 28.0935 1.75527C28.2381 2.00189 28.2748 2.29351 28.1955 2.56608L26.5625 8.17033C26.4976 8.39468 26.3578 8.59241 26.1645 8.73317C25.9713 8.87393 25.7352 8.94994 25.4926 8.94954C25.391 8.94814 25.29 8.93502 25.1918 8.91048L19.3583 7.34554C19.0814 7.26316 18.8488 7.08027 18.7102 6.83581C18.5717 6.59136 18.538 6.30465 18.6164 6.03674C18.6948 5.76882 18.8791 5.54087 19.1301 5.40141C19.3811 5.26195 19.6788 5.222 19.96 5.29007L24.7213 6.56633L26.0535 2.00826C26.091 1.87178 26.1564 1.74378 26.2457 1.63168C26.3351 1.51957 26.4468 1.42558 26.5742 1.35514C26.7017 1.2847 26.8424 1.2392 26.9883 1.22129C27.1342 1.20337 27.2824 1.21338 27.4242 1.25075Z" fill="#292D50"/>
<path d="M28.743 11.9099H28.2703V14.0435H28.743C29.0168 14.0441 29.2791 14.1489 29.4725 14.3348C29.6658 14.5208 29.7744 14.7727 29.7744 15.0354V16.6785H14.5451V15.0354C14.5457 14.7725 14.6548 14.5206 14.8485 14.3347C15.0423 14.1488 15.3048 14.0441 15.5788 14.0435H16.0312V11.9099H15.5788C14.7153 11.9111 13.8876 12.2407 13.277 12.8266C12.6664 13.4125 12.3229 14.2069 12.3217 15.0354V24.7788C12.2742 25.8055 12.5479 26.6129 13.1088 27.1816C13.6698 27.7503 14.423 27.9999 15.4001 27.9999H28.7453C29.6085 27.9987 30.4361 27.669 31.0463 27.083C31.6565 26.4971 31.9995 25.7027 32.0001 24.8744V15.0354C31.9995 14.2067 31.6562 13.412 31.0455 12.826C30.4348 12.24 29.6067 11.9105 28.743 11.9099ZM29.7744 24.8744C29.7744 25.137 29.6658 25.389 29.4725 25.575C29.2791 25.7609 29.0168 25.8657 28.743 25.8663H15.434C15.0767 25.8663 14.8165 25.8098 14.708 25.7013C14.5994 25.5928 14.5225 25.2672 14.5451 24.857V18.8121H29.7744V24.8744Z" fill="#292D50"/>
</svg>
