<svg width="66" height="42" viewBox="0 0 66 42" fill="none" xmlns="http://www.w3.org/2000/svg">
<path d="M48.667 15.041L44.2898 19.6509C44.0749 19.8745 43.7844 20 43.4818 20C43.1791 20 42.8887 19.8745 42.6737 19.6509L38.2965 15.041C38.0991 14.8128 37.993 14.5135 38.0004 14.2053C38.0077 13.8972 38.1279 13.6038 38.336 13.3863C38.544 13.1687 38.824 13.0437 39.1176 13.0371C39.4112 13.0306 39.696 13.143 39.9127 13.3511L43.4833 17.1113L47.0539 13.3511C47.1596 13.2399 47.2851 13.1517 47.4233 13.0915C47.5615 13.0312 47.7097 13.0001 47.8594 13C48.009 12.9999 48.1572 13.0306 48.2955 13.0906C48.4338 13.1506 48.5596 13.2386 48.6655 13.3495C48.7714 13.4605 48.8554 13.5923 48.9128 13.7373C48.9702 13.8824 48.9999 14.0379 49 14.1949C49.0001 14.352 48.9708 14.5076 48.9137 14.6527C48.8565 14.7979 48.7727 14.9298 48.667 15.041Z" fill="#7600FF"/>
<path d="M32.1171 26.9228C32.1171 27.2085 32.0037 27.4824 31.8017 27.6845C31.5997 27.8865 31.3257 27.9999 31.04 27.9999C28.2694 28.0079 25.5587 27.1935 23.2512 25.66C20.9436 24.1265 19.143 21.9427 18.0772 19.3853C17.0114 16.8278 16.7285 14.0116 17.2642 11.2933C17.7998 8.57492 19.13 6.07662 21.0864 4.11468C23.0427 2.15274 25.5372 0.815396 28.254 0.271953C30.9708 -0.27149 33.7878 0.00341177 36.3483 1.06185C38.9088 2.12029 41.0977 3.91468 42.6378 6.21782C44.1779 8.52097 45 11.2293 45 13.9999C45 14.2856 44.8865 14.5596 44.6845 14.7616C44.4825 14.9636 44.2085 15.0771 43.9229 15.0771C43.6372 15.0771 43.3632 14.9636 43.1612 14.7616C42.9592 14.5596 42.8457 14.2856 42.8457 13.9999C42.8378 11.6667 42.1387 9.38815 40.8367 7.45198C39.5347 5.51581 37.6881 4.00887 35.5302 3.12145C33.3723 2.23404 30.9998 2.00594 28.7124 2.46598C26.425 2.92601 24.3251 4.05354 22.6781 5.70618C21.031 7.35882 19.9106 9.46245 19.4583 11.7514C19.006 14.0404 19.2421 16.4121 20.1368 18.567C21.0315 20.7219 22.5447 22.5633 24.4853 23.8588C26.4258 25.1542 28.7068 25.8456 31.04 25.8457C31.3257 25.8457 31.5997 25.9591 31.8017 26.1611C32.0037 26.3631 32.1171 26.6371 32.1171 26.9228Z" fill="#7600FF"/>
<path d="M1.872 40H0.972V32.056H4.776C5.584 32.056 6.232 32.28 6.72 32.728C7.208 33.168 7.452 33.772 7.452 34.54C7.452 35.532 7.04 36.208 6.216 36.568C5.984 36.672 5.756 36.748 5.532 36.796L7.62 40H6.552L4.632 36.952H1.872V40ZM1.872 36.1H4.62C5.468 36.1 6.052 35.836 6.372 35.308C6.492 35.108 6.552 34.852 6.552 34.54C6.552 34.036 6.38 33.64 6.036 33.352C5.692 33.056 5.236 32.908 4.668 32.908H1.872V36.1ZM11.3427 39.28C12.1507 39.28 12.7307 38.944 13.0827 38.272H14.0667C13.8587 38.816 13.5267 39.256 13.0707 39.592C12.6227 39.928 12.0427 40.096 11.3307 40.096C10.4267 40.096 9.69072 39.796 9.12272 39.196C8.57072 38.612 8.29472 37.88 8.29472 37C8.29472 36.112 8.55872 35.38 9.08672 34.804C9.64672 34.204 10.3747 33.904 11.2707 33.904C12.1667 33.904 12.8947 34.204 13.4547 34.804C13.9827 35.38 14.2467 36.112 14.2467 37V37.36H9.21872C9.28272 37.912 9.50272 38.368 9.87872 38.728C10.2627 39.096 10.7507 39.28 11.3427 39.28ZM11.2707 34.72C10.7187 34.72 10.2547 34.892 9.87872 35.236C9.52672 35.564 9.31072 35.992 9.23072 36.52H13.3107C13.2307 35.992 13.0147 35.564 12.6627 35.236C12.2867 34.892 11.8227 34.72 11.2707 34.72ZM11.1507 31.9H12.4347L11.1507 33.16H10.4187L11.1507 31.9ZM18.1184 39.28C18.5024 39.28 18.8424 39.172 19.1384 38.956C19.4344 38.74 19.6504 38.46 19.7864 38.116H20.7584C20.5744 38.708 20.2384 39.184 19.7504 39.544C19.2384 39.912 18.6304 40.096 17.9264 40.096C17.0464 40.096 16.3304 39.796 15.7784 39.196C15.2424 38.612 14.9744 37.88 14.9744 37C14.9744 36.12 15.2424 35.388 15.7784 34.804C16.3304 34.204 17.0464 33.904 17.9264 33.904C18.6304 33.904 19.2384 34.088 19.7504 34.456C20.2384 34.816 20.5744 35.292 20.7584 35.884H19.7864C19.6504 35.54 19.4344 35.26 19.1384 35.044C18.8424 34.828 18.5024 34.72 18.1184 34.72C17.7344 34.72 17.4064 34.78 17.1344 34.9C16.8704 35.02 16.6464 35.184 16.4624 35.392C16.0704 35.824 15.8744 36.36 15.8744 37C15.8744 37.64 16.0704 38.176 16.4624 38.608C16.8624 39.056 17.4144 39.28 18.1184 39.28ZM26.2058 40V39.064C25.9898 39.352 25.7258 39.596 25.4138 39.796C25.1018 39.996 24.7458 40.096 24.3458 40.096C23.9458 40.096 23.6018 40.04 23.3138 39.928C23.0258 39.816 22.7738 39.648 22.5578 39.424C22.0618 38.936 21.8138 38.292 21.8138 37.492V34H22.7138V37.468C22.7138 38.02 22.8698 38.46 23.1818 38.788C23.4938 39.116 23.8978 39.28 24.3938 39.28C24.8978 39.28 25.3258 39.112 25.6778 38.776C26.0298 38.432 26.2058 37.992 26.2058 37.456V34H27.1058V40H26.2058ZM31.8386 33.904V34.804H31.7306C31.0826 34.804 30.5546 35.064 30.1466 35.584C29.7626 36.08 29.5706 36.672 29.5706 37.36V40H28.6706V34H29.5706V35.476C29.7626 34.852 30.1786 34.392 30.8186 34.096C31.0826 33.968 31.4026 33.904 31.7786 33.904H31.8386ZM35.9753 33.904V34.804H35.8673C35.2193 34.804 34.6913 35.064 34.2833 35.584C33.8993 36.08 33.7073 36.672 33.7073 37.36V40H32.8073V34H33.7073V35.476C33.8993 34.852 34.3153 34.392 34.9553 34.096C35.2193 33.968 35.5393 33.904 35.9153 33.904H35.9753ZM39.4677 39.28C40.2757 39.28 40.8557 38.944 41.2077 38.272H42.1917C41.9837 38.816 41.6517 39.256 41.1957 39.592C40.7477 39.928 40.1677 40.096 39.4557 40.096C38.5517 40.096 37.8157 39.796 37.2477 39.196C36.6957 38.612 36.4197 37.88 36.4197 37C36.4197 36.112 36.6837 35.38 37.2117 34.804C37.7717 34.204 38.4997 33.904 39.3957 33.904C40.2917 33.904 41.0197 34.204 41.5797 34.804C42.1077 35.38 42.3717 36.112 42.3717 37V37.36H37.3437C37.4077 37.912 37.6277 38.368 38.0037 38.728C38.3877 39.096 38.8757 39.28 39.4677 39.28ZM39.3957 34.72C38.8437 34.72 38.3797 34.892 38.0037 35.236C37.6517 35.564 37.4357 35.992 37.3557 36.52H41.4357C41.3557 35.992 41.1397 35.564 40.7877 35.236C40.4117 34.892 39.9477 34.72 39.3957 34.72ZM44.3714 34V34.936C44.5874 34.648 44.8514 34.404 45.1634 34.204C45.4754 34.004 45.8314 33.904 46.2314 33.904C46.6314 33.904 46.9754 33.96 47.2634 34.072C47.5514 34.184 47.8034 34.352 48.0194 34.576C48.5154 35.064 48.7634 35.708 48.7634 36.508V40H47.8634V36.532C47.8634 35.98 47.7074 35.54 47.3954 35.212C47.0834 34.884 46.6794 34.72 46.1834 34.72C45.6794 34.72 45.2514 34.888 44.8994 35.224C44.5474 35.568 44.3714 36.008 44.3714 36.544V40H43.4714V34H44.3714ZM50.7757 40V34.792H49.5517V34H50.7757V31.852H51.6757V34H53.0557V34.792H51.6757V40H50.7757ZM56.6005 39.28C57.4085 39.28 57.9885 38.944 58.3405 38.272H59.3245C59.1165 38.816 58.7845 39.256 58.3285 39.592C57.8805 39.928 57.3005 40.096 56.5885 40.096C55.6845 40.096 54.9485 39.796 54.3805 39.196C53.8285 38.612 53.5525 37.88 53.5525 37C53.5525 36.112 53.8165 35.38 54.3445 34.804C54.9045 34.204 55.6325 33.904 56.5285 33.904C57.4245 33.904 58.1525 34.204 58.7125 34.804C59.2405 35.38 59.5045 36.112 59.5045 37V37.36H54.4765C54.5405 37.912 54.7605 38.368 55.1365 38.728C55.5205 39.096 56.0085 39.28 56.6005 39.28ZM56.5285 34.72C55.9765 34.72 55.5125 34.892 55.1365 35.236C54.7845 35.564 54.5685 35.992 54.4885 36.52H58.5685C58.4885 35.992 58.2725 35.564 57.9205 35.236C57.5445 34.892 57.0805 34.72 56.5285 34.72ZM64.1322 35.608C64.0522 34.984 63.5482 34.672 62.6202 34.672C61.7002 34.672 61.2402 34.96 61.2402 35.536C61.2402 35.776 61.3362 35.96 61.5282 36.088C61.7282 36.208 61.9762 36.308 62.2722 36.388C62.5682 36.468 62.8882 36.544 63.2322 36.616C63.5842 36.68 63.9082 36.776 64.2042 36.904C64.5002 37.024 64.7442 37.192 64.9362 37.408C65.1362 37.624 65.2362 37.92 65.2362 38.296C65.2362 38.88 65.0162 39.328 64.5762 39.64C64.1362 39.944 63.5402 40.096 62.7882 40.096C61.9882 40.096 61.3522 39.896 60.8802 39.496C60.4482 39.144 60.2162 38.684 60.1842 38.116H61.1202C61.1762 38.668 61.4882 39.04 62.0562 39.232C62.2642 39.296 62.4682 39.328 62.6682 39.328C62.8762 39.328 63.0682 39.316 63.2442 39.292C63.4202 39.268 63.5922 39.224 63.7602 39.16C64.1442 39.008 64.3362 38.748 64.3362 38.38C64.3362 38.132 64.2362 37.944 64.0362 37.816C63.8442 37.68 63.6002 37.572 63.3042 37.492C63.0082 37.404 62.6842 37.328 62.3322 37.264C61.9882 37.192 61.6682 37.096 61.3722 36.976C61.0762 36.856 60.8282 36.692 60.6282 36.484C60.4362 36.276 60.3402 35.988 60.3402 35.62C60.3402 35.076 60.5362 34.656 60.9282 34.36C61.3282 34.056 61.9162 33.904 62.6922 33.904C63.4282 33.904 64.0082 34.08 64.4322 34.432C64.7842 34.728 64.9882 35.12 65.0442 35.608H64.1322Z" fill="#7600FF"/>
</svg>
