<svg width="33" height="28" viewBox="0 0 33 28" fill="none" xmlns="http://www.w3.org/2000/svg">
<path d="M32.5678 15.1482L28.3461 19.3014C28.1384 19.5038 27.8571 19.6174 27.5638 19.6174C27.2705 19.6174 26.9892 19.5038 26.7815 19.3014L22.5466 15.1482C22.3762 14.9393 22.2907 14.6763 22.3066 14.4097C22.3224 14.143 22.4385 13.8914 22.6326 13.7034C22.8266 13.5153 23.0849 13.4039 23.3578 13.3907C23.6307 13.3774 23.899 13.4632 24.1111 13.6316L27.566 17.02L31.0054 13.6186C31.1007 13.4944 31.2221 13.3917 31.3615 13.3175C31.5009 13.2432 31.655 13.199 31.8133 13.188C31.9717 13.177 32.1306 13.1994 32.2793 13.2537C32.4281 13.308 32.5631 13.3928 32.6754 13.5026C32.7876 13.6123 32.8745 13.7444 32.93 13.8898C32.9855 14.0352 33.0084 14.1905 32.9971 14.3453C32.9859 14.5002 32.9407 14.6508 32.8648 14.7871C32.7888 14.9233 32.6837 15.042 32.5567 15.1352L32.5678 15.1482Z" fill="#292D50"/>
<path d="M15.4684 26.9167C15.4684 27.204 15.3517 27.4795 15.1439 27.6827C14.9361 27.8858 14.6542 27.9999 14.3604 27.9999C11.5265 28.0077 8.75392 27.1932 6.39373 25.6596C4.03355 24.1261 2.19185 21.9424 1.10178 19.3851C0.0117168 16.8277 -0.277703 14.0117 0.270163 11.2935C0.818029 8.57523 2.17855 6.07702 4.17948 4.11509C6.18042 2.15317 8.73179 0.815751 11.5106 0.272145C14.2895 -0.271461 17.1708 0.00318992 19.7899 1.06133C22.409 2.11947 24.648 3.91351 26.2236 6.21635C27.7992 8.51919 28.6405 11.2273 28.641 13.9978C28.6564 14.1484 28.6394 14.3005 28.5911 14.4443C28.5427 14.5881 28.464 14.7204 28.3601 14.8327C28.2563 14.945 28.1295 15.0347 27.9879 15.0961C27.8464 15.1575 27.6933 15.1892 27.5384 15.1892C27.3836 15.1892 27.2305 15.1575 27.0889 15.0961C26.9474 15.0347 26.8206 14.945 26.7167 14.8327C26.6129 14.7204 26.5342 14.5881 26.4858 14.4443C26.4375 14.3005 26.4205 14.1484 26.4359 13.9978C26.4276 11.6647 25.7123 9.3863 24.3804 7.45035C23.0485 5.5144 21.1596 4.00769 18.9524 3.12048C16.7451 2.23327 14.3185 2.00535 11.9788 2.4655C9.63919 2.92565 7.49147 4.05323 5.80689 5.70586C4.1223 7.35849 2.97639 9.46206 2.51385 11.7509C2.05132 14.0398 2.2929 16.4114 3.20809 18.5661C4.12329 20.7208 5.67105 22.5622 7.65594 23.8575C9.64084 25.1529 11.9738 25.8442 14.3604 25.8443C14.6523 25.8442 14.9325 25.9569 15.14 26.1577C15.3475 26.3585 15.4655 26.6313 15.4684 26.9167Z" fill="#292D50"/>
</svg>
