<svg width="60" height="60" viewBox="0 0 60 60" fill="none" xmlns="http://www.w3.org/2000/svg">
<circle cx="30" cy="30" r="30" fill="#7600FF" fill-opacity="0.25"/>
<g filter="url(#filter0_f)">
<circle cx="29.9999" cy="30.0001" r="25.3846" fill="#7600FF"/>
</g>
<g clip-path="url(#clip0)">
<path d="M9.23096 35.4231C10.731 35.4231 12.3463 35.4231 13.8463 35.4231C13.9617 34.3847 14.0771 33.3462 14.3079 32.3077C14.7694 30 15.3463 27.8077 16.5002 25.7308C17.4233 24.3462 18.4617 22.8462 19.6156 21.577C21.231 19.7308 23.1925 18.3462 25.6156 17.7693C27.4617 17.3077 29.3079 17.1924 31.2694 17.7693C30.5771 18.1154 29.8848 18.3462 29.3079 18.6924C28.3848 19.2693 27.3463 19.9616 26.4233 20.6539C25.0386 21.8077 24.0002 23.3077 23.0771 24.8077C21.231 27.6924 20.4233 31.0385 19.9617 34.3847C19.9617 34.7308 19.8463 35.1924 19.731 35.6539C21.3463 35.6539 22.9617 35.6539 24.5771 35.6539V35.7693C24.1156 36.2308 23.5386 36.6924 23.0771 37.2693C22.6156 37.6154 22.2694 38.077 21.8079 38.4231C20.3079 39.9231 18.6925 41.4231 17.1925 42.9231C16.9617 43.1539 16.8463 43.1539 16.6156 42.9231L16.5002 42.8077C14.654 40.9616 12.8079 39.2308 10.9617 37.3847C10.3848 36.8077 9.80788 36.3462 9.23096 35.7693C9.23096 35.5385 9.23096 35.5385 9.23096 35.4231Z" fill="white"/>
<path d="M39.5772 24.8076C37.9618 24.8076 36.4618 24.8076 34.731 24.8076C37.3849 22.2692 39.9233 19.8461 42.4618 17.3076C45.0003 19.7307 47.5387 22.2692 50.1926 24.8076C48.5772 24.8076 46.9618 24.8076 45.4618 24.8076C45.3464 25.6153 45.231 26.423 45.1156 27.2307C44.5387 30.4615 43.5003 33.5768 41.6541 36.3461C40.8464 37.6153 39.808 38.7692 38.6541 39.8076C36.3464 41.8845 33.4618 43.1538 30.231 42.923C29.7695 42.923 29.4233 42.8076 28.9618 42.8076C28.6156 42.8076 28.3849 42.6922 27.9233 42.5768C28.2695 42.4615 28.5003 42.3461 28.731 42.2307C29.6541 41.7692 30.5772 41.3076 31.5003 40.7307C32.8849 39.923 33.9233 38.6538 34.9618 37.3845C36.3464 35.6538 37.2695 33.5768 38.0772 31.4999C38.8849 29.5384 39.231 27.4615 39.4618 25.2692C39.5772 25.2692 39.5772 25.0384 39.5772 24.8076Z" fill="white"/>
</g>
<defs>
<filter id="filter0_f" x="3.61523" y="3.61548" width="52.7692" height="52.7692" filterUnits="userSpaceOnUse" color-interpolation-filters="sRGB">
<feFlood flood-opacity="0" result="BackgroundImageFix"/>
<feBlend mode="normal" in="SourceGraphic" in2="BackgroundImageFix" result="shape"/>
<feGaussianBlur stdDeviation="0.5" result="effect1_foregroundBlur"/>
</filter>
<clipPath id="clip0">
<rect width="40.9615" height="25.7308" fill="white" transform="translate(9.23096 17.3076)"/>
</clipPath>
</defs>
</svg>
