<svg width="33" height="28" viewBox="0 0 33 28" fill="none" xmlns="http://www.w3.org/2000/svg">
<path d="M5.40705 10.752L1.93762 14.117C1.83212 14.2192 1.7069 14.3002 1.56911 14.3554C1.43133 14.4107 1.28367 14.4391 1.13457 14.439C0.985474 14.4389 0.837857 14.4103 0.700149 14.3548C0.56244 14.2994 0.437337 14.2182 0.331983 14.1159C0.226628 14.0136 0.143085 13.8921 0.0861233 13.7585C0.0291617 13.6248 -0.000103053 13.4816 2.72657e-07 13.337C0.000103598 13.1924 0.0295727 13.0492 0.0867252 12.9157C0.143878 12.7821 0.227595 12.6608 0.333096 12.5586L4.6059 8.41443C4.81872 8.20816 5.10729 8.09229 5.40816 8.09229C5.70904 8.09229 5.9976 8.20816 6.21042 8.41443L10.4855 12.5586C10.605 12.6567 10.7023 12.7777 10.7712 12.9141C10.8402 13.0504 10.8793 13.1991 10.8861 13.3509C10.893 13.5026 10.8673 13.654 10.8109 13.7957C10.7544 13.9374 10.6684 14.0662 10.5581 14.174C10.4479 14.2818 10.3158 14.3664 10.1702 14.4223C10.0247 14.4782 9.86872 14.5043 9.71223 14.499C9.55575 14.4936 9.4021 14.4569 9.26095 14.3912C9.1198 14.3254 8.9942 14.2321 8.89205 14.117L5.40705 10.752Z" fill="#DADADA"/>
<path d="M33.0001 14.0005C33.0001 17.7134 31.4794 21.2742 28.7725 23.8996C26.0655 26.5251 22.3942 28 18.566 28C14.7379 28 11.0665 26.5251 8.35961 23.8996C5.6527 21.2742 4.13197 17.7134 4.13197 14.0005C4.12518 13.8517 4.14953 13.7031 4.20356 13.5637C4.25759 13.4242 4.34018 13.2969 4.44634 13.1893C4.55251 13.0816 4.68005 12.996 4.82127 12.9375C4.96249 12.8789 5.11447 12.8488 5.26805 12.8488C5.42162 12.8488 5.5736 12.8789 5.71483 12.9375C5.85605 12.996 5.98359 13.0816 6.08975 13.1893C6.19591 13.2969 6.2785 13.4242 6.33253 13.5637C6.38656 13.7031 6.41092 13.8517 6.40412 14.0005C6.40537 16.7538 7.39963 19.42 9.21464 21.5371C11.0297 23.6541 13.5511 25.0887 16.342 25.5922C19.1329 26.0957 22.0175 25.6364 24.496 24.2939C26.9745 22.9514 28.8907 20.8103 29.9126 18.2416C30.9345 15.6728 30.9978 12.8383 30.0914 10.2291C29.185 7.61987 27.3661 5.40038 24.9498 3.95517C22.5335 2.50996 19.6721 1.93008 16.8613 2.31602C14.0505 2.70195 11.4675 4.02938 9.55977 6.06831C9.45953 6.17531 9.33854 6.26211 9.20371 6.32376C9.06888 6.38541 8.92285 6.4207 8.77396 6.42762C8.62507 6.43453 8.47623 6.41294 8.33595 6.36406C8.19566 6.31519 8.06668 6.23999 7.95635 6.14277C7.84603 6.04555 7.75653 5.9282 7.69297 5.79743C7.6294 5.66666 7.59302 5.52503 7.58589 5.38062C7.57876 5.23621 7.60102 5.09186 7.65142 4.9558C7.70181 4.81973 7.77934 4.69463 7.87958 4.58763C9.83853 2.49525 12.4047 1.02706 15.2404 0.376206C18.0761 -0.274647 21.0485 -0.0776649 23.7666 0.941235C26.4847 1.96014 28.8211 3.75322 30.4684 6.08458C32.1157 8.41594 32.9967 11.1764 32.9956 14.0027L33.0001 14.0005Z" fill="#DADADA"/>
<path d="M18.6551 23.4673C17.3734 23.4679 16.1042 23.223 14.9203 22.7467C13.7365 22.2704 12.6612 21.5719 11.7563 20.6915L18.6551 14.0004V4.5293C21.2444 4.5293 23.7277 5.52692 25.5586 7.3027C27.3895 9.07848 28.4181 11.4869 28.4181 13.9983C28.4181 16.5096 27.3895 18.9181 25.5586 20.6939C23.7277 22.4696 21.2444 23.4673 18.6551 23.4673Z" fill="#DADADA"/>
</svg>
