<svg width="50" height="43" viewBox="0 0 50 43" fill="none" xmlns="http://www.w3.org/2000/svg">
<path d="M7.632 32.056V36.58C7.632 37.636 7.316 38.488 6.684 39.136C6.06 39.776 5.248 40.096 4.248 40.096C3.256 40.096 2.444 39.776 1.812 39.136C1.188 38.488 0.876 37.636 0.876 36.58V32.056H1.776V36.604C1.776 37.46 2.032 38.128 2.544 38.608C2.984 39.016 3.552 39.22 4.248 39.22C4.944 39.22 5.516 39.016 5.964 38.608C6.476 38.136 6.732 37.468 6.732 36.604V32.056H7.632ZM12.3269 33.904V34.804H12.2189C11.5709 34.804 11.0429 35.064 10.6349 35.584C10.2509 36.08 10.0589 36.672 10.0589 37.36V40H9.15891V34H10.0589V35.476C10.2509 34.852 10.6669 34.392 11.3069 34.096C11.5709 33.968 11.8909 33.904 12.2669 33.904H12.3269ZM17.8233 34.96V34H18.7233V39.82C18.7233 40.684 18.4753 41.34 17.9793 41.788C17.4913 42.244 16.8313 42.472 15.9993 42.472C15.1673 42.472 14.5153 42.312 14.0433 41.992C13.5793 41.672 13.2633 41.248 13.0953 40.72H14.0913C14.3473 41.344 14.9313 41.656 15.8433 41.656C16.5393 41.656 17.0433 41.496 17.3553 41.176C17.6673 40.856 17.8233 40.384 17.8233 39.76V38.932C17.3353 39.644 16.6193 40 15.6753 40C14.8113 40 14.1073 39.704 13.5633 39.112C13.0353 38.536 12.7713 37.816 12.7713 36.952C12.7713 36.088 13.0353 35.368 13.5633 34.792C14.1073 34.2 14.8313 33.904 15.7353 33.904C16.6473 33.904 17.3433 34.256 17.8233 34.96ZM15.7953 39.184C16.1233 39.184 16.4153 39.128 16.6713 39.016C16.9273 38.896 17.1473 38.736 17.3313 38.536C17.6913 38.12 17.8713 37.592 17.8713 36.952C17.8713 36.312 17.6913 35.784 17.3313 35.368C16.9393 34.936 16.4273 34.72 15.7953 34.72C15.1473 34.72 14.6273 34.936 14.2353 35.368C13.8593 35.792 13.6713 36.32 13.6713 36.952C13.6713 37.584 13.8593 38.112 14.2353 38.536C14.6273 38.968 15.1473 39.184 15.7953 39.184ZM22.956 39.28C23.764 39.28 24.344 38.944 24.696 38.272H25.68C25.472 38.816 25.14 39.256 24.684 39.592C24.236 39.928 23.656 40.096 22.944 40.096C22.04 40.096 21.304 39.796 20.736 39.196C20.184 38.612 19.908 37.88 19.908 37C19.908 36.112 20.172 35.38 20.7 34.804C21.26 34.204 21.988 33.904 22.884 33.904C23.78 33.904 24.508 34.204 25.068 34.804C25.596 35.38 25.86 36.112 25.86 37V37.36H20.832C20.896 37.912 21.116 38.368 21.492 38.728C21.876 39.096 22.364 39.28 22.956 39.28ZM22.884 34.72C22.332 34.72 21.868 34.892 21.492 35.236C21.14 35.564 20.924 35.992 20.844 36.52H24.924C24.844 35.992 24.628 35.564 24.276 35.236C23.9 34.892 23.436 34.72 22.884 34.72ZM27.8597 34V34.936C28.0757 34.648 28.3397 34.404 28.6517 34.204C28.9637 34.004 29.3197 33.904 29.7197 33.904C30.1197 33.904 30.4637 33.96 30.7517 34.072C31.0397 34.184 31.2917 34.352 31.5077 34.576C32.0037 35.064 32.2517 35.708 32.2517 36.508V40H31.3517V36.532C31.3517 35.98 31.1957 35.54 30.8837 35.212C30.5717 34.884 30.1677 34.72 29.6717 34.72C29.1677 34.72 28.7397 34.888 28.3877 35.224C28.0357 35.568 27.8597 36.008 27.8597 36.544V40H26.9597V34H27.8597ZM34.2639 40V34.792H33.0399V34H34.2639V31.852H35.1639V34H36.5439V34.792H35.1639V40H34.2639ZM40.0888 39.28C40.8968 39.28 41.4768 38.944 41.8288 38.272H42.8128C42.6048 38.816 42.2728 39.256 41.8168 39.592C41.3688 39.928 40.7888 40.096 40.0768 40.096C39.1728 40.096 38.4368 39.796 37.8688 39.196C37.3168 38.612 37.0408 37.88 37.0408 37C37.0408 36.112 37.3048 35.38 37.8328 34.804C38.3928 34.204 39.1208 33.904 40.0168 33.904C40.9128 33.904 41.6408 34.204 42.2008 34.804C42.7288 35.38 42.9928 36.112 42.9928 37V37.36H37.9648C38.0288 37.912 38.2488 38.368 38.6248 38.728C39.0088 39.096 39.4968 39.28 40.0888 39.28ZM40.0168 34.72C39.4648 34.72 39.0008 34.892 38.6248 35.236C38.2728 35.564 38.0568 35.992 37.9768 36.52H42.0568C41.9768 35.992 41.7608 35.564 41.4088 35.236C41.0328 34.892 40.5688 34.72 40.0168 34.72ZM47.6205 35.608C47.5405 34.984 47.0365 34.672 46.1085 34.672C45.1885 34.672 44.7285 34.96 44.7285 35.536C44.7285 35.776 44.8245 35.96 45.0165 36.088C45.2165 36.208 45.4645 36.308 45.7605 36.388C46.0565 36.468 46.3765 36.544 46.7205 36.616C47.0725 36.68 47.3965 36.776 47.6925 36.904C47.9885 37.024 48.2325 37.192 48.4245 37.408C48.6245 37.624 48.7245 37.92 48.7245 38.296C48.7245 38.88 48.5045 39.328 48.0645 39.64C47.6245 39.944 47.0285 40.096 46.2765 40.096C45.4765 40.096 44.8405 39.896 44.3685 39.496C43.9365 39.144 43.7045 38.684 43.6725 38.116H44.6085C44.6645 38.668 44.9765 39.04 45.5445 39.232C45.7525 39.296 45.9565 39.328 46.1565 39.328C46.3645 39.328 46.5565 39.316 46.7325 39.292C46.9085 39.268 47.0805 39.224 47.2485 39.16C47.6325 39.008 47.8245 38.748 47.8245 38.38C47.8245 38.132 47.7245 37.944 47.5245 37.816C47.3325 37.68 47.0885 37.572 46.7925 37.492C46.4965 37.404 46.1725 37.328 45.8205 37.264C45.4765 37.192 45.1565 37.096 44.8605 36.976C44.5645 36.856 44.3165 36.692 44.1165 36.484C43.9245 36.276 43.8285 35.988 43.8285 35.62C43.8285 35.076 44.0245 34.656 44.4165 34.36C44.8165 34.056 45.4045 33.904 46.1805 33.904C46.9165 33.904 47.4965 34.08 47.9205 34.432C48.2725 34.728 48.4765 35.12 48.5325 35.608H47.6205Z" fill="#7600FF"/>
<path d="M11.0295 11.9226L7.1743 15.6199C7.05876 15.7378 6.91981 15.8321 6.76569 15.8974C6.61157 15.9627 6.44541 15.9975 6.27705 15.9999C6.10868 16.0022 5.94154 15.9721 5.78551 15.9111C5.62947 15.8502 5.48773 15.7598 5.36866 15.6452C5.2496 15.5306 5.15564 15.3942 5.09233 15.2441C5.02903 15.0939 4.99768 14.9331 5.00013 14.771C5.00259 14.609 5.0388 14.4491 5.10662 14.3008C5.17445 14.1525 5.2725 14.0188 5.39499 13.9076L10.1299 9.35414C10.2465 9.24187 10.385 9.15281 10.5373 9.09204C10.6897 9.03128 10.853 9 11.0179 9C11.1829 9 11.3462 9.03128 11.4986 9.09204C11.6509 9.15281 11.7894 9.24187 11.906 9.35414L16.631 13.9076C16.867 14.1342 16.9997 14.4418 17 14.7626C17.0003 15.0834 16.8682 15.3912 16.6327 15.6183C16.3971 15.8454 16.0775 15.9731 15.7442 15.9734C15.4108 15.9737 15.0909 15.8465 14.855 15.6199L11.0295 11.9226Z" fill="#7600FF"/>
<path d="M40 15.0007C40 18.9788 38.4196 22.7939 35.6066 25.6068C32.7936 28.4197 28.9782 30 25 30C21.0218 30 17.2064 28.4197 14.3934 25.6068C11.5804 22.7939 10 18.9788 10 15.0007C10 14.6874 10.1245 14.3869 10.346 14.1653C10.5676 13.9438 10.8681 13.8193 11.1814 13.8193C11.4948 13.8193 11.7953 13.9438 12.0168 14.1653C12.2384 14.3869 12.3629 14.6874 12.3629 15.0007C12.3627 17.951 13.3946 20.8084 15.2798 23.0778C17.165 25.3472 19.7848 26.8858 22.6851 27.4268C25.5855 27.9678 28.5838 27.4772 31.1605 26.0401C33.7371 24.6029 35.7299 22.3097 36.7935 19.5578C37.857 16.8059 37.9244 13.7687 36.9839 10.9723C36.0434 8.17595 34.1542 5.79668 31.6438 4.24672C29.1334 2.69675 26.1598 2.07376 23.2383 2.48568C20.3168 2.89759 17.6314 4.31846 15.6474 6.50211C15.5457 6.62539 15.42 6.72675 15.2779 6.80004C15.1359 6.87333 14.9804 6.91703 14.821 6.9285C14.6615 6.93997 14.5014 6.91897 14.3504 6.86677C14.1993 6.81457 14.0604 6.73225 13.942 6.6248C13.8237 6.51736 13.7284 6.38701 13.6619 6.24166C13.5954 6.09631 13.559 5.93898 13.5551 5.77919C13.5512 5.6194 13.5797 5.46047 13.639 5.31203C13.6983 5.16359 13.7871 5.02872 13.9 4.91559C15.9355 2.67382 18.602 1.10072 21.5487 0.403257C24.4953 -0.294207 27.5841 -0.0833653 30.4087 1.00804C33.2332 2.09945 35.6612 4.0203 37.3731 6.51787C39.0851 9.01545 40.0009 11.9727 40 15.0007Z" fill="#7600FF"/>
<path d="M24.6269 25C23.3959 25.0012 22.1768 24.7431 21.0395 24.2403C19.9023 23.7375 18.8693 23 18 22.0701L24.6269 15V5C27.1128 5 29.4969 6.05357 31.2547 7.92893C33.0125 9.8043 34 12.3478 34 15C34 17.6522 33.0125 20.1957 31.2547 22.0711C29.4969 23.9464 27.1128 25 24.6269 25Z" fill="#7600FF"/>
</svg>
