<svg width="39" height="42" viewBox="0 0 39 42" fill="none" xmlns="http://www.w3.org/2000/svg">
<path d="M31.1117 11.8468C31.4311 11.5216 31.6748 11.1304 31.8255 10.7009C31.9762 10.2713 32.0303 9.81397 31.9839 9.36125C31.9375 8.90854 31.7917 8.47155 31.557 8.08128C31.3222 7.691 31.0042 7.357 30.6255 7.10297L20.7556 0.518182C20.2506 0.180378 19.6561 0 19.048 0C18.4398 0 17.8453 0.180378 17.3403 0.518182L7.42412 7.15491C6.99747 7.44116 6.64826 7.82793 6.40743 8.28094C6.1666 8.73395 6.0416 9.23919 6.0435 9.75189C6.04332 10.5509 6.35469 11.3186 6.91182 11.893C6.34809 12.4732 6.03288 13.2493 6.03288 14.0571C6.03288 14.8649 6.34809 15.641 6.91182 16.2213C6.58489 16.5468 6.33487 16.9409 6.17994 17.3749C6.02502 17.8088 5.96908 18.2718 6.01621 18.7301C6.06334 19.1883 6.21235 19.6303 6.45239 20.0239C6.69244 20.4175 7.01747 20.7528 7.40386 21.0055L17.2824 27.495C17.7806 27.8251 18.3658 28.0009 18.964 28C19.5692 27.9995 20.161 27.8219 20.6659 27.4893L30.5821 20.9362C30.9636 20.6842 31.2849 20.3515 31.523 19.9618C31.761 19.572 31.9101 19.1348 31.9595 18.6812C32.009 18.2275 31.9576 17.7686 31.8091 17.3369C31.6606 16.9053 31.4185 16.5116 31.1001 16.1837C31.6706 15.6033 31.9905 14.8235 31.9916 14.0109C31.996 13.2021 31.6798 12.4243 31.1117 11.8468ZM30.2434 14.008C30.2445 14.2318 30.1897 14.4523 30.0842 14.6497C29.9786 14.8472 29.8254 15.0154 29.6385 15.1392L28.0784 16.1693L19.7223 21.6922C19.5027 21.8375 19.245 21.915 18.9814 21.915C18.7178 21.915 18.4601 21.8375 18.2404 21.6922L9.92776 16.2414L8.3648 15.2142C8.18454 15.0917 8.0374 14.9267 7.93642 14.734C7.83544 14.5412 7.78374 14.3265 7.78592 14.109C7.78294 13.8811 7.83727 13.6561 7.94395 13.4545C8.05063 13.2528 8.20626 13.0811 8.39663 12.9548L10.0754 14.0629L11.6499 15.0988L17.3113 18.824C17.8126 19.1562 18.4012 19.3333 19.0031 19.3333C19.605 19.3333 20.1935 19.1562 20.6949 18.824L26.3939 15.0728L27.9655 14.034L29.6674 12.9087C29.849 13.0293 29.9979 13.1928 30.1009 13.3846C30.2039 13.5763 30.2578 13.7905 30.2579 14.008H30.2434ZM8.38506 8.62076L18.3012 1.98403C18.5216 1.83379 18.7824 1.75341 19.0494 1.75341C19.3164 1.75341 19.5772 1.83379 19.7976 1.98403L29.6732 8.56016C29.8593 8.68143 30.0116 8.8477 30.1159 9.04347C30.2201 9.23923 30.273 9.45813 30.2695 9.67975C30.2713 9.90372 30.2173 10.1246 30.1122 10.3226C30.0071 10.5205 29.8542 10.6893 29.6674 10.8138C29.6674 10.8138 29.6674 10.8138 29.653 10.8138L28.0958 11.8439L26.3939 12.9693L24.8193 14.008L19.7368 17.3639C19.5172 17.5092 19.2594 17.5867 18.9959 17.5867C18.7323 17.5867 18.4745 17.5092 18.2549 17.3639L13.2013 14.0484L11.6268 13.0125L9.93934 11.9045L8.37927 10.8801C8.19901 10.7576 8.05187 10.5927 7.95089 10.3999C7.84991 10.2071 7.79822 9.99245 7.80039 9.77497C7.7927 9.5491 7.84224 9.32494 7.94443 9.1232C8.04662 8.92147 8.19816 8.74866 8.38506 8.62076ZM29.6298 19.4848L19.7108 26.0349C19.4914 26.181 19.2336 26.2589 18.9698 26.2589C18.706 26.2589 18.4482 26.181 18.2288 26.0349L8.35322 19.5627C8.16773 19.4389 8.01626 19.2709 7.91262 19.0738C7.80898 18.8767 7.75647 18.6569 7.75987 18.4345C7.75524 18.2066 7.80855 17.9812 7.91483 17.7794C8.02111 17.5776 8.1769 17.4059 8.36769 17.2802L17.3026 23.1494C17.8022 23.4787 18.3883 23.6534 18.9872 23.6515C19.5916 23.6515 20.1825 23.4738 20.6862 23.1408L29.6588 17.211C29.8443 17.3335 29.9961 17.5004 30.1003 17.6965C30.2044 17.8926 30.2576 18.1116 30.255 18.3335C30.257 18.5624 30.2007 18.7882 30.0913 18.9895C29.982 19.1909 29.8232 19.3613 29.6298 19.4848Z" fill="#7600FF"/>
<path d="M6.612 32.92H3.84V40H2.94V32.92H0.168V32.056H6.612V32.92ZM11.0733 39.04C10.5933 39.744 9.87728 40.096 8.92528 40.096C8.06128 40.096 7.35728 39.796 6.81328 39.196C6.28528 38.604 6.02128 37.872 6.02128 37C6.02128 36.128 6.28528 35.396 6.81328 34.804C7.35728 34.204 8.08128 33.904 8.98528 33.904C9.88928 33.904 10.5853 34.26 11.0733 34.972V34H11.9733V40H11.0733V39.04ZM9.04528 39.28C9.69328 39.28 10.2053 39.056 10.5813 38.608C10.9413 38.184 11.1213 37.648 11.1213 37C11.1213 36.352 10.9413 35.816 10.5813 35.392C10.2053 34.944 9.69328 34.72 9.04528 34.72C8.40528 34.72 7.88528 34.944 7.48528 35.392C7.10928 35.816 6.92128 36.352 6.92128 37C6.92128 37.648 7.10928 38.184 7.48528 38.608C7.88528 39.056 8.40528 39.28 9.04528 39.28ZM9.64528 33.16L8.93728 32.512L8.22928 33.16H7.24528L8.42128 31.9H9.46528L10.6293 33.16H9.64528ZM16.302 39.28C16.686 39.28 17.026 39.172 17.322 38.956C17.618 38.74 17.834 38.46 17.97 38.116H18.942C18.758 38.708 18.422 39.184 17.934 39.544C17.422 39.912 16.814 40.096 16.11 40.096C15.23 40.096 14.514 39.796 13.962 39.196C13.426 38.612 13.158 37.88 13.158 37C13.158 36.12 13.426 35.388 13.962 34.804C14.514 34.204 15.23 33.904 16.11 33.904C16.814 33.904 17.422 34.088 17.934 34.456C18.422 34.816 18.758 35.292 18.942 35.884H17.97C17.834 35.54 17.618 35.26 17.322 35.044C17.026 34.828 16.686 34.72 16.302 34.72C15.918 34.72 15.59 34.78 15.318 34.9C15.054 35.02 14.83 35.184 14.646 35.392C14.254 35.824 14.058 36.36 14.058 37C14.058 37.64 14.254 38.176 14.646 38.608C15.046 39.056 15.598 39.28 16.302 39.28ZM20.9573 31.6V34.936C21.1733 34.648 21.4373 34.404 21.7493 34.204C22.0613 34.004 22.4173 33.904 22.8173 33.904C23.2173 33.904 23.5613 33.96 23.8493 34.072C24.1373 34.184 24.3893 34.352 24.6053 34.576C25.1013 35.064 25.3493 35.708 25.3493 36.508V40H24.4493V36.532C24.4493 35.98 24.2933 35.54 23.9813 35.212C23.6693 34.884 23.2653 34.72 22.7693 34.72C22.2653 34.72 21.8373 34.888 21.4853 35.224C21.1333 35.568 20.9573 36.008 20.9573 36.544V40H20.0573V31.6H20.9573ZM29.5302 39.28C30.3382 39.28 30.9182 38.944 31.2702 38.272H32.2542C32.0462 38.816 31.7142 39.256 31.2582 39.592C30.8102 39.928 30.2302 40.096 29.5182 40.096C28.6142 40.096 27.8782 39.796 27.3102 39.196C26.7582 38.612 26.4822 37.88 26.4822 37C26.4822 36.112 26.7462 35.38 27.2742 34.804C27.8342 34.204 28.5622 33.904 29.4582 33.904C30.3542 33.904 31.0822 34.204 31.6422 34.804C32.1702 35.38 32.4342 36.112 32.4342 37V37.36H27.4062C27.4702 37.912 27.6902 38.368 28.0662 38.728C28.4502 39.096 28.9382 39.28 29.5302 39.28ZM29.4582 34.72C28.9062 34.72 28.4422 34.892 28.0662 35.236C27.7142 35.564 27.4982 35.992 27.4182 36.52H31.4982C31.4182 35.992 31.2022 35.564 30.8502 35.236C30.4742 34.892 30.0102 34.72 29.4582 34.72ZM37.0619 35.608C36.9819 34.984 36.4779 34.672 35.5499 34.672C34.6299 34.672 34.1699 34.96 34.1699 35.536C34.1699 35.776 34.2659 35.96 34.4579 36.088C34.6579 36.208 34.9059 36.308 35.2019 36.388C35.4979 36.468 35.8179 36.544 36.1619 36.616C36.5139 36.68 36.8379 36.776 37.1339 36.904C37.4299 37.024 37.6739 37.192 37.8659 37.408C38.0659 37.624 38.1659 37.92 38.1659 38.296C38.1659 38.88 37.9459 39.328 37.5059 39.64C37.0659 39.944 36.4699 40.096 35.7179 40.096C34.9179 40.096 34.2819 39.896 33.8099 39.496C33.3779 39.144 33.1459 38.684 33.1139 38.116H34.0499C34.1059 38.668 34.4179 39.04 34.9859 39.232C35.1939 39.296 35.3979 39.328 35.5979 39.328C35.8059 39.328 35.9979 39.316 36.1739 39.292C36.3499 39.268 36.5219 39.224 36.6899 39.16C37.0739 39.008 37.2659 38.748 37.2659 38.38C37.2659 38.132 37.1659 37.944 36.9659 37.816C36.7739 37.68 36.5299 37.572 36.2339 37.492C35.9379 37.404 35.6139 37.328 35.2619 37.264C34.9179 37.192 34.5979 37.096 34.3019 36.976C34.0059 36.856 33.7579 36.692 33.5579 36.484C33.3659 36.276 33.2699 35.988 33.2699 35.62C33.2699 35.076 33.4659 34.656 33.8579 34.36C34.2579 34.056 34.8459 33.904 35.6219 33.904C36.3579 33.904 36.9379 34.08 37.3619 34.432C37.7139 34.728 37.9179 35.12 37.9739 35.608H37.0619Z" fill="#7600FF"/>
</svg>
