<svg width="28" height="28" viewBox="0 0 28 28" fill="none" xmlns="http://www.w3.org/2000/svg">
<path d="M27.0416 11.8442C27.3855 11.5195 27.648 11.1287 27.8107 10.6997C27.9734 10.2707 28.0323 9.81378 27.9832 9.36137C27.9341 8.90895 27.7782 8.47204 27.5265 8.08153C27.2749 7.69101 26.9336 7.35643 26.5268 7.10143L15.8834 0.519693C15.3395 0.180941 14.6988 0 14.0431 0C13.3875 0 12.7468 0.180941 12.2028 0.519693L1.51752 7.15963C1.1096 7.41321 0.766762 7.74653 0.513191 8.13608C0.25962 8.52563 0.101491 8.96192 0.0499561 9.41419C-0.00157906 9.86645 0.0547348 10.3237 0.214927 10.7536C0.375119 11.1835 0.635287 11.5757 0.977081 11.9024C0.364708 12.4812 0.0203993 13.2581 0.0173542 14.0681C0.0143091 14.8781 0.352768 15.6573 0.960775 16.24C0.614356 16.5669 0.350249 16.9606 0.187331 17.3929C0.0244141 17.8253 -0.033291 18.2856 0.0183414 18.741C0.0699738 19.1964 0.229669 19.6356 0.486011 20.0272C0.742353 20.4189 1.08901 20.7532 1.50121 21.0065L12.1446 27.4955C12.6816 27.8258 13.3122 28.0013 13.9569 28C14.6092 28.001 15.2471 27.8233 15.7902 27.4891L26.4756 20.9354C26.887 20.6832 27.2333 20.3502 27.4899 19.9601C27.7465 19.5701 27.9071 19.1325 27.9602 18.6784C28.0134 18.2244 27.9578 17.7651 27.7974 17.3332C27.637 16.9014 27.3758 16.5075 27.0323 16.1796C27.6464 15.602 27.9917 14.8249 27.9943 14.0146C27.997 13.2043 27.6566 12.4252 27.0463 11.8442H27.0416ZM26.1215 14.0001C26.123 14.224 26.0641 14.4448 25.9502 14.6424C25.8363 14.84 25.671 15.0083 25.4692 15.1319L23.7897 16.1624L14.7792 21.6985C14.5429 21.8441 14.2653 21.9218 13.9814 21.9218C13.6975 21.9218 13.4199 21.8441 13.1836 21.6985L4.21506 16.2378L2.53317 15.2138H2.5192C2.32246 15.0927 2.16134 14.9282 2.05034 14.7351C1.93933 14.5421 1.88191 14.3265 1.88325 14.1079C1.88035 13.8814 1.93899 13.6579 2.05377 13.4579C2.16855 13.2578 2.3358 13.0877 2.54016 12.9631L4.35716 14.0734L6.05302 15.1082L12.1632 18.8356C12.7009 19.1662 13.3324 19.3418 13.9779 19.34C14.6303 19.3399 15.2681 19.1614 15.8112 18.827L21.9494 15.0629L23.6429 14.0238L25.4785 12.8984C25.6763 13.0191 25.8385 13.1833 25.9508 13.3764C26.063 13.5694 26.1216 13.7852 26.1215 14.0044V14.0001ZM2.55414 8.6105L13.2395 1.98565C13.4796 1.83532 13.7625 1.75429 14.0524 1.75282C14.337 1.75415 14.6149 1.83287 14.8515 1.97919L25.4948 8.54799C25.6947 8.66952 25.8583 8.83578 25.9702 9.03137C26.0822 9.22695 26.1391 9.44554 26.1355 9.66686C26.1382 9.89013 26.0811 10.1106 25.9693 10.3084C25.8575 10.5063 25.6945 10.6755 25.4948 10.8008H25.4809L23.8013 11.8313L21.9657 12.9566L20.2722 13.9958L14.7792 17.3632C14.5427 17.5082 14.2652 17.5856 13.9814 17.5856C13.6976 17.5856 13.4201 17.5082 13.1836 17.3632L7.74422 14.0453L6.04603 13.0105L4.22903 11.9024L2.54715 10.8763H2.53317C2.33673 10.7549 2.17584 10.5903 2.06487 10.3973C1.9539 10.2044 1.8963 9.98894 1.89722 9.77034C1.89214 9.54203 1.94974 9.31626 2.06463 9.11416C2.17952 8.91206 2.34795 8.74025 2.55414 8.61481V8.6105ZM25.4459 19.478L14.7583 26.0317C14.5219 26.1773 14.2444 26.255 13.9604 26.255C13.6765 26.255 13.3989 26.1773 13.1626 26.0317L2.5192 19.5513C2.31836 19.4306 2.15358 19.265 2.04 19.0698C1.92643 18.8747 1.86772 18.6562 1.86927 18.4346C1.86698 18.2085 1.92589 17.9855 2.04064 17.786C2.15539 17.5864 2.32231 17.4166 2.52619 17.292L12.1516 23.1645C12.6923 23.4963 13.3268 23.6732 13.9756 23.6732C14.6244 23.6732 15.2588 23.4963 15.7996 23.1645L25.4669 17.2338C25.6661 17.3565 25.829 17.5234 25.9408 17.7191C26.0527 17.9149 26.11 18.1334 26.1075 18.3548C26.1068 18.5788 26.0459 18.799 25.9305 18.9959C25.815 19.1927 25.6485 19.3598 25.4459 19.4823V19.478Z" fill="#292D50"/>
</svg>
